<svg width="318" height="870" viewBox="0 0 318 870" fill="none" xmlns="http://www.w3.org/2000/svg">
<g clip-path="url(#clip0_102_3)">
<path d="M306.394 0H11.6058C5.19611 0 0 6.85761 0 15.3169V854.683C0 863.142 5.19611 870 11.6058 870H306.394C312.804 870 318 863.142 318 854.683V15.3169C318 6.85761 312.804 0 306.394 0Z" fill="#483EFF"/>
<mask id="mask0_102_3" style="mask-type:alpha" maskUnits="userSpaceOnUse" x="0" y="0" width="318" height="870">
<path d="M306.394 0H11.6058C5.19611 0 0 6.85761 0 15.3169V854.683C0 863.142 5.19611 870 11.6058 870H306.394C312.804 870 318 863.142 318 854.683V15.3169C318 6.85761 312.804 0 306.394 0Z" fill="white"/>
</mask>
<g mask="url(#mask0_102_3)">
<path fill-rule="evenodd" clip-rule="evenodd" d="M-40.263 831.862C3.76839 968.852 195.868 1049.23 245.997 938.191C296.128 827.148 169.284 806.997 124.444 692.249C79.6044 577.501 44.7614 505.882 -20.0282 532.023C-84.8167 558.166 -84.2956 694.873 -40.2642 831.862H-40.263Z" fill="#6259FF"/>
<path fill-rule="evenodd" clip-rule="evenodd" d="M270.526 920.78C340.949 877.467 378.274 700.943 319.126 658.052C259.977 615.16 252.512 730.929 193.714 774.441C134.917 817.953 98.3839 851.343 113.583 909.599C128.782 967.855 200.103 964.093 270.526 920.78V920.78Z" fill="#F9818E"/>
<path d="M191.85 718.511L204.161 701.96M243.097 726.911L228.583 710.824M217.679 748.983L209.662 771.649" stroke="white" stroke-width="5" stroke-linecap="round" stroke-linejoin="bevel"/>
<path d="M0.353975 837.668C43.2991 837.668 78.1131 791.721 78.1131 735.044C78.1131 678.367 43.2991 632.421 0.353975 632.421C-42.5911 632.421 -77.4052 678.367 -77.4052 735.044C-77.4052 791.721 -42.5911 837.668 0.353975 837.668V837.668Z" fill="#FFAF7E"/>
</g>
</g>
<defs>
<clipPath id="clip0_102_3">
<rect width="318" height="870" fill="white"/>
</clipPath>
</defs>
</svg>
