<svg width="1920" height="164" viewBox="0 0 1920 164" fill="none" xmlns="http://www.w3.org/2000/svg">
<g clip-path="url(#clip0_103_24)">
<path d="M1920 0.854156H0V164H1920V0.854156Z" fill="#483EFF"/>
<path d="M84 218C140.885 218 187 182.63 187 139C187 95.3695 140.885 60 84 60C27.1147 60 -19 95.3695 -19 139C-19 182.63 27.1147 218 84 218Z" fill="#FFAF7E"/>
<path d="M1567 98C1587.99 98 1605 80.9868 1605 60C1605 39.0132 1587.99 22 1567 22C1546.01 22 1529 39.0132 1529 60C1529 80.9868 1546.01 98 1567 98Z" fill="#BFE2FD"/>
<path d="M1672.94 73.4925C1641.16 76.9927 1594.65 115.495 1607.05 191H1626.43H1921V0.987735C1864.41 0.821058 1831.61 -2.8086 1827.98 4.98802C1809.37 44.9905 1805.24 -14.6302 1773.72 27.4895C1752.01 56.4914 1701.36 67.9921 1672.94 73.4925Z" fill="#F9818E"/>
</g>
<defs>
<clipPath id="clip0_103_24">
<rect width="1920" height="164" fill="white"/>
</clipPath>
</defs>
</svg>
